<?xml version="1.0" ?><!DOCTYPE svg  PUBLIC '-//W3C//DTD SVG 1.1//EN'  'http://www.w3.org/Graphics/SVG/1.1/DTD/svg11.dtd'><svg enable-background="new 0 0 24 24" height="24px" id="Layer_1" version="1.1" viewBox="0 0 24 24" width="24px" xml:space="preserve" xmlns="http://www.w3.org/2000/svg" xmlns:xlink="http://www.w3.org/1999/xlink"><g><path d="M2.677,4.029c0,0.781,0.09,1.594,0.211,2.435C2.978,7.277,3.07,8.09,3.07,8.872c0,0.962-0.241,2.104-2.35,2.137v1.954   c2.108,0.031,2.35,1.262,2.35,2.137c0,0.779-0.092,1.561-0.182,2.373c-0.121,0.813-0.211,1.656-0.211,2.408   C2.677,22.916,4.541,24,7.159,24H8.03v-2.137H7.489c-1.502,0-2.105-0.873-2.105-2.375c0-0.603,0.09-1.234,0.211-1.896   c0.06-0.658,0.18-1.383,0.18-2.193C5.805,13.295,4.904,12.36,3.368,12v-0.061c1.536-0.36,2.438-1.263,2.406-3.367   c0-0.782-0.12-1.503-0.18-2.167c-0.121-0.659-0.211-1.29-0.211-1.894c0-1.472,0.54-2.346,2.105-2.346H8.03V0.001H7.159   C4.482,0,2.677,1.201,2.677,4.029z"/><path d="M20.933,8.872c0-0.781,0.12-1.594,0.211-2.408c0.09-0.841,0.209-1.653,0.209-2.435C21.353,1.201,19.55,0,16.873,0H16v2.165   h0.54c1.535,0.031,2.075,0.873,2.075,2.346c0,0.603-0.09,1.233-0.18,1.894c-0.091,0.663-0.181,1.384-0.181,2.167   c-0.028,2.105,0.873,3.007,2.376,3.367v0.06c-1.501,0.36-2.404,1.295-2.376,3.399c0,0.81,0.09,1.536,0.181,2.193   c0.09,0.663,0.18,1.294,0.18,1.897c0,1.5-0.571,2.344-2.075,2.374H16v2.136h0.872c2.616,0,4.48-1.083,4.48-4.118   c0-0.752-0.119-1.594-0.209-2.407c-0.091-0.813-0.211-1.594-0.211-2.375c0-0.873,0.271-2.104,2.346-2.137v-1.954   C21.204,10.976,20.933,9.834,20.933,8.872z"/></g></svg>