<?xml version="1.0" standalone="no"?>
<!DOCTYPE svg PUBLIC "-//W3C//DTD SVG 1.1//EN" "http://www.w3.org/Graphics/SVG/1.1/DTD/svg11.dtd">
<svg width="100%" height="100%" viewBox="0 0 300 300" version="1.1" xmlns="http://www.w3.org/2000/svg" xmlns:xlink="http://www.w3.org/1999/xlink" xml:space="preserve" style="fill-rule:evenodd;clip-rule:evenodd;stroke-linejoin:round;stroke-miterlimit:1.41421;">
    <g id="Icon" transform="matrix(0.952227,0.189995,-0.189995,0.952227,-574.246,-623.221)">
        <g transform="matrix(0.98067,-0.19567,0.19567,0.98067,-1111.46,141.794)">
            <path d="M1904.51,793.676L1879.99,810.041L1854.73,772.186L1879.25,755.821L1904.51,793.676Z" style="fill:url(#_Linear1);"/>
        </g>
        <g transform="matrix(0.98067,-0.19567,0.19567,0.98067,687.732,524.632)">
            <path d="M234.942,179.915L276.837,242.695L226.93,276L185.035,213.219L177.726,202.268L227.634,168.963L234.942,179.915Z" style="fill:url(#_Linear2);"/>
        </g>
        <g transform="matrix(0.98067,-0.19567,0.19567,0.98067,687.732,524.632)">
            <path d="M172.083,221.862L181.307,235.684L143.32,261.034L126.787,236.26L135.086,230.722L164.775,210.91L172.083,221.862Z" style="fill:url(#_Linear3);"/>
        </g>
        <g transform="matrix(0.98067,-0.19567,0.19567,0.98067,687.732,524.632)">
            <path d="M255.696,150.236L266.351,143.126L282.883,167.9L258.36,184.265L249.136,170.443L263.004,161.188L255.696,150.236ZM249.136,170.443L241.828,159.491L255.696,150.236L263.004,161.188L249.136,170.443Z" style="fill:url(#_Linear4);"/>
        </g>
        <g transform="matrix(0.98067,-0.19567,0.19567,0.98067,687.732,524.632)">
            <path d="M83.746,153.788L75.448,159.326L50.186,121.471L88.173,96.121L105.88,122.656L76.192,142.468L105.88,122.656L113.435,133.977L83.746,153.788Z" style="fill:url(#_Linear5);"/>
        </g>
        <g transform="matrix(0.98067,-0.19567,0.19567,0.98067,687.732,524.632)">
            <path d="M168.74,80.708L176.294,92.029L126.386,125.334L118.832,114.013L77.329,51.821L127.237,18.516L168.74,80.708Z" style="fill:url(#_Linear6);"/>
        </g>
        <g transform="matrix(0.98067,-0.19567,0.19567,0.98067,687.732,524.632)">
            <path d="M204.356,73.303L190.488,82.557L182.933,71.237L165.226,44.702L189.749,28.337L215.011,66.192L204.356,73.303Z" style="fill:url(#_Linear7);"/>
        </g>
        <g transform="matrix(0.98067,-0.19567,0.19567,0.98067,687.732,524.632)">
            <path d="M142.395,241.674L135.086,230.722L164.775,210.91L172.083,221.862L142.395,241.674Z" style="fill:rgb(113,72,150);"/>
        </g>
        <g transform="matrix(0.98067,-0.19567,0.19567,0.98067,687.732,524.632)">
            <path d="M249.136,170.443L241.828,159.491L255.696,150.236L263.004,161.188L249.136,170.443Z" style="fill:rgb(111,71,149);"/>
        </g>
        <g transform="matrix(0.98067,-0.19567,0.19567,0.98067,687.732,524.632)">
            <path d="M83.746,153.788L76.192,142.468L105.88,122.656L113.435,133.977L83.746,153.788Z" style="fill:rgb(136,81,159);"/>
        </g>
        <g transform="matrix(0.98067,-0.19567,0.19567,0.98067,687.732,524.632)">
            <path d="M190.488,82.557L182.933,71.237L196.802,61.982L204.356,73.303L190.488,82.557Z" style="fill:rgb(133,80,158);"/>
        </g>
        <g transform="matrix(0.98067,-0.19567,0.19567,0.98067,687.732,524.632)">
            <path d="M234.942,179.915L185.035,213.219L177.726,202.268L227.634,168.963L234.942,179.915Z" style="fill:rgb(141,22,106);"/>
        </g>
        <g transform="matrix(0.98067,-0.19567,0.19567,0.98067,687.732,524.632)">
            <path d="M168.74,80.708L176.294,92.029L126.386,125.334L118.832,114.013L168.74,80.708Z" style="fill:rgb(167,13,111);"/>
        </g>
        <g transform="matrix(0.0838394,0.0838394,-0.0838394,0.0838394,897.184,285.926)">
            <rect x="1003" y="2520" width="143.131" height="143.131" style="fill:rgb(158,97,173);"/>
        </g>
        <g transform="matrix(0.0838394,0.0838394,-0.0838394,0.0838394,980.184,441.926)">
            <rect x="1003" y="2520" width="143.131" height="143.131" style="fill:rgb(128,83,163);"/>
        </g>
        <g transform="matrix(1,2.77556e-17,-1.38778e-16,1,-196.486,-2023.23)">
            <path d="M1015.85,2781.73L963.105,2728.59L1150.79,2540.51L1205.31,2592.28L1015.85,2781.73Z" style="fill:url(#_Linear8);"/>
        </g>
    </g>
    <defs>
        <linearGradient id="_Linear1" x1="0" y1="0" x2="1" y2="0" gradientUnits="userSpaceOnUse" gradientTransform="matrix(311.539,311.539,-311.539,311.539,1661.51,677.648)"><stop offset="0%" style="stop-color:rgb(192,111,187);stop-opacity:1"/><stop offset="100%" style="stop-color:rgb(110,77,155);stop-opacity:1"/></linearGradient>
        <linearGradient id="_Linear2" x1="0" y1="0" x2="1" y2="0" gradientUnits="userSpaceOnUse" gradientTransform="matrix(-168.486,-248.455,240.79,-173.85,250.023,259.328)"><stop offset="0%" style="stop-color:rgb(110,77,155);stop-opacity:1"/><stop offset="14%" style="stop-color:rgb(119,50,122);stop-opacity:1"/><stop offset="29%" style="stop-color:rgb(179,23,119);stop-opacity:1"/><stop offset="84%" style="stop-color:rgb(205,15,126);stop-opacity:1"/><stop offset="100%" style="stop-color:rgb(237,44,137);stop-opacity:1"/></linearGradient>
        <linearGradient id="_Linear3" x1="0" y1="0" x2="1" y2="0" gradientUnits="userSpaceOnUse" gradientTransform="matrix(311.539,398.641,-311.539,398.641,-27.9866,-136.75)"><stop offset="0%" style="stop-color:rgb(192,111,187);stop-opacity:1"/><stop offset="100%" style="stop-color:rgb(110,77,155);stop-opacity:1"/></linearGradient>
        <linearGradient id="_Linear4" x1="0" y1="0" x2="1" y2="0" gradientUnits="userSpaceOnUse" gradientTransform="matrix(379.008,311.539,-379.008,311.539,-95.31,-49.8356)"><stop offset="0%" style="stop-color:rgb(192,111,187);stop-opacity:1"/><stop offset="100%" style="stop-color:rgb(110,77,155);stop-opacity:1"/></linearGradient>
        <linearGradient id="_Linear5" x1="0" y1="0" x2="1" y2="0" gradientUnits="userSpaceOnUse" gradientTransform="matrix(353.797,311.539,-353.797,311.539,-38.5899,-49.8356)"><stop offset="0%" style="stop-color:rgb(192,111,187);stop-opacity:1"/><stop offset="100%" style="stop-color:rgb(110,77,155);stop-opacity:1"/></linearGradient>
        <linearGradient id="_Linear6" x1="0" y1="0" x2="1" y2="0" gradientUnits="userSpaceOnUse" gradientTransform="matrix(-168.959,-249.473,241.466,-174.562,266.435,289.783)"><stop offset="0%" style="stop-color:rgb(110,77,155);stop-opacity:1"/><stop offset="14%" style="stop-color:rgb(119,50,122);stop-opacity:1"/><stop offset="29%" style="stop-color:rgb(179,23,119);stop-opacity:1"/><stop offset="84%" style="stop-color:rgb(205,15,126);stop-opacity:1"/><stop offset="100%" style="stop-color:rgb(237,44,137);stop-opacity:1"/></linearGradient>
        <linearGradient id="_Linear7" x1="0" y1="0" x2="1" y2="0" gradientUnits="userSpaceOnUse" gradientTransform="matrix(311.539,375.658,-311.539,375.658,-27.9866,-65.9245)"><stop offset="0%" style="stop-color:rgb(192,111,187);stop-opacity:1"/><stop offset="100%" style="stop-color:rgb(110,77,155);stop-opacity:1"/></linearGradient>
        <linearGradient id="_Linear8" x1="0" y1="0" x2="1" y2="0" gradientUnits="userSpaceOnUse" gradientTransform="matrix(191.237,-188.333,188.333,191.237,990.204,2756.77)"><stop offset="0%" style="stop-color:rgb(110,77,155);stop-opacity:1"/><stop offset="14%" style="stop-color:rgb(119,50,122);stop-opacity:1"/><stop offset="53%" style="stop-color:rgb(179,23,119);stop-opacity:1"/><stop offset="79%" style="stop-color:rgb(205,15,126);stop-opacity:1"/><stop offset="100%" style="stop-color:rgb(237,44,137);stop-opacity:1"/></linearGradient>
    </defs>
</svg>
